<?xml version="1.0" encoding="UTF-8" standalone="no"?>
<svg
   xmlns:dc="http://purl.org/dc/elements/1.1/"
   xmlns:cc="http://creativecommons.org/ns#"
   xmlns:rdf="http://www.w3.org/1999/02/22-rdf-syntax-ns#"
   xmlns:svg="http://www.w3.org/2000/svg"
   xmlns="http://www.w3.org/2000/svg"
   viewBox="0 0 46.904667 23.340401"
   height="23.340401"
   width="46.904667"
   xml:space="preserve"
   id="svg2"
   version="1.1"><metadata
     id="metadata8"><rdf:RDF><cc:Work
         rdf:about=""><dc:format>image/svg+xml</dc:format><dc:type
           rdf:resource="http://purl.org/dc/dcmitype/StillImage" /></cc:Work></rdf:RDF></metadata><defs
     id="defs6"><clipPath
       id="clipPath18"
       clipPathUnits="userSpaceOnUse"><path
         id="path16"
         d="M 0,0 H 35.179 V 17.505 H 0 Z" /></clipPath></defs><g
     transform="matrix(1.3333333,0,0,-1.3333333,0,23.3404)"
     id="g10"><g
       id="g12"><g
         clip-path="url(#clipPath18)"
         id="g14"><g
           transform="translate(0.5814,16.0519)"
           id="g20"><path
             id="path22"
             style="fill:none;stroke:#231f20;stroke-width:2.5999999;stroke-linecap:butt;stroke-linejoin:miter;stroke-miterlimit:4;stroke-dasharray:none;stroke-opacity:1"
             d="M 0,0 5.669,-2.835 11.339,0 17.008,-2.835 22.677,0 28.346,-2.835 34.016,0" /></g><g
           transform="translate(0.5814,10.17)"
           id="g24"><path
             id="path26"
             style="fill:none;stroke:#231f20;stroke-width:2.5999999;stroke-linecap:butt;stroke-linejoin:miter;stroke-miterlimit:4;stroke-dasharray:none;stroke-opacity:1"
             d="M 0,0 5.669,-2.835 11.339,0 17.008,-2.835 22.677,0 28.346,-2.835 34.016,0" /></g><g
           transform="translate(0.5814,4.2881)"
           id="g28"><path
             id="path30"
             style="fill:none;stroke:#231f20;stroke-width:2.5999999;stroke-linecap:butt;stroke-linejoin:miter;stroke-miterlimit:4;stroke-dasharray:none;stroke-opacity:1"
             d="M 0,0 5.669,-2.835 11.339,0 17.008,-2.835 22.677,0 28.346,-2.835 34.016,0" /></g></g></g></g></svg>